<svg xmlns="http://www.w3.org/2000/svg" viewBox="0 0 512 512">
  <defs>
    <linearGradient id="bg" x1="0" y1="0" x2="1" y2="1">
      <stop offset="0%" stop-color="#151827"/>
      <stop offset="100%" stop-color="#0a0b11"/>
    </linearGradient>
    <linearGradient id="ring" x1="0" y1="0" x2="1" y2="1">
      <stop offset="0%" stop-color="#a67ff0"/>
      <stop offset="100%" stop-color="#32d2d8"/>
    </linearGradient>
  </defs>
  <rect width="512" height="512" rx="112" fill="url(#bg)"/>
  <circle cx="256" cy="256" r="146" fill="#0e1017" stroke="#1c2030" stroke-width="26"/>
  <circle cx="256" cy="256" r="112" fill="#111319" stroke="url(#ring)" stroke-width="18" stroke-dasharray="510 188" stroke-linecap="round" transform="rotate(-90 256 256)"/>
  <circle cx="256" cy="256" r="88" fill="#0b0d13" stroke="#2a2f40" stroke-width="8"/>
  <text x="256" y="235" text-anchor="middle" font-family="Arial, Helvetica, sans-serif" font-size="36" fill="#d3d6e0" letter-spacing="4">HAILEY</text>
  <text x="256" y="292" text-anchor="middle" font-family="Arial, Helvetica, sans-serif" font-size="84" font-weight="700" fill="#ffffff">10</text>
  <path d="M115 116l22 9 9 22 9-22 22-9-22-9-9-22-9 22z" fill="#c8ff36"/>
  <path d="M381 113l12 5 5 12 5-12 12-5-12-5-5-12-5 12z" fill="#a67ff0"/>
  <path d="M389 389l16 7 7 16 7-16 16-7-16-7-7-16-7 16z" fill="#32d2d8"/>
</svg>
